<?xml version="1.0" standalone="no"?>
<!DOCTYPE svg PUBLIC "-//W3C//DTD SVG 20010904//EN"
 "http://www.w3.org/TR/2001/REC-SVG-20010904/DTD/svg10.dtd">
<svg version="1.0" xmlns="http://www.w3.org/2000/svg"
 width="824.000000pt" height="824.000000pt" viewBox="0 0 824.000000 824.000000"
 preserveAspectRatio="xMidYMid meet">
<metadata>
Created by potrace 1.14, written by Peter Selinger 2001-2017
</metadata>
<g transform="translate(0.000000,824.000000) scale(0.100000,-0.100000)"
fill="#000000" stroke="none">
<path d="M6690 8233 c-46 -7 -154 -46 -215 -76 -149 -74 -320 -204 -485 -369
-20 -21 -42 -38 -47 -38 -6 0 -46 17 -89 39 -270 133 -666 266 -939 316 -147
27 -260 45 -310 50 -33 4 -71 8 -85 10 -59 8 -295 18 -420 18 -193 0 -348 -11
-540 -38 -59 -9 -111 -11 -138 -6 -127 24 -301 -15 -500 -114 -81 -40 -212
-98 -292 -130 -161 -63 -399 -179 -530 -258 -82 -49 -274 -172 -295 -189 -5
-4 -53 -40 -105 -79 -227 -171 -464 -398 -661 -634 -230 -275 -423 -589 -592
-965 -69 -155 -193 -526 -214 -640 -2 -14 -10 -50 -18 -80 -7 -30 -16 -71 -19
-90 -3 -19 -8 -46 -11 -60 -13 -67 -25 -141 -31 -195 -3 -33 -8 -67 -9 -75
-27 -142 -27 -681 0 -890 2 -19 7 -55 10 -80 5 -38 27 -173 40 -245 19 -105
87 -361 135 -505 102 -308 266 -645 449 -919 42 -63 81 -122 86 -130 6 -9 12
-18 15 -21 3 -3 32 -41 65 -85 33 -44 62 -82 65 -85 3 -3 44 -50 91 -105 221
-258 518 -519 806 -710 40 -26 70 -52 67 -57 -16 -26 -78 -225 -95 -308 -20
-94 -26 -203 -14 -270 3 -19 19 -63 35 -97 23 -46 42 -69 77 -92 57 -38 91
-39 152 -5 87 48 113 116 92 241 -18 104 -20 220 -5 318 70 452 385 1018 934
1675 132 158 160 190 233 270 23 25 71 79 107 119 79 89 89 100 205 226 51 55
104 114 119 130 15 17 83 89 150 160 68 72 134 142 147 156 40 44 317 336 425
449 56 58 121 125 144 150 23 25 119 126 214 224 94 99 182 191 196 206 14 15
70 74 125 131 134 140 314 333 505 539 52 57 109 118 125 135 148 159 267 293
370 416 227 272 486 665 617 939 186 388 252 603 294 960 7 64 8 271 0 315 -3
17 -7 50 -11 75 -8 64 -27 143 -37 155 -4 5 -8 15 -8 23 0 17 -56 99 -94 136
-16 15 -45 35 -65 44 -34 14 -167 24 -221 15z m-4141 -819 c19 -3 71 -23 115
-43 194 -90 387 -299 582 -629 137 -231 334 -690 425 -992 11 -36 24 -74 29
-85 30 -68 228 -778 256 -919 6 -32 10 -48 47 -216 31 -136 96 -449 112 -535
9 -51 47 -279 50 -301 2 -13 -12 -38 -35 -65 -38 -43 -38 -44 -44 -19 -5 24
-31 160 -40 210 -2 14 -19 93 -36 175 -17 83 -34 164 -36 180 -3 17 -10 48
-16 70 -5 22 -12 51 -15 65 -5 27 -35 160 -59 260 -16 63 -67 255 -120 450
-213 773 -491 1403 -778 1760 -243 302 -484 419 -741 359 -54 -13 -171 -57
-238 -90 -40 -20 -39 -18 28 46 39 37 102 97 140 134 39 37 104 98 145 135
l75 68 60 -6 c33 -3 75 -8 94 -12z m3369 -38 c129 -67 221 -291 225 -546 2
-124 -1 -156 -23 -257 -14 -66 -25 -75 -24 -19 3 65 -22 212 -50 301 -61 192
-181 289 -358 289 -38 0 -68 1 -68 4 0 6 36 50 131 159 97 112 90 109 167 69z"/>
<path d="M7021 6863 c-54 -249 -207 -601 -404 -928 -208 -347 -433 -638 -772
-999 -11 -12 -63 -68 -115 -126 -52 -57 -104 -114 -115 -125 -11 -11 -81 -85
-155 -165 -127 -136 -220 -235 -300 -319 -63 -67 -404 -424 -445 -466 -40 -42
-329 -345 -395 -415 -19 -20 -99 -104 -176 -186 -78 -82 -157 -165 -175 -185
-19 -20 -80 -86 -136 -145 -56 -60 -114 -122 -128 -139 -15 -16 -44 -48 -64
-70 -20 -22 -65 -71 -100 -110 -35 -38 -85 -92 -110 -120 -26 -27 -80 -88
-121 -135 -41 -47 -77 -87 -80 -90 -15 -15 -128 -149 -207 -246 -314 -384
-570 -783 -707 -1103 -31 -72 -56 -135 -56 -140 0 -22 401 -194 615 -264 174
-57 435 -123 560 -141 22 -3 51 -8 65 -10 47 -9 175 -25 250 -31 41 -4 93 -8
115 -11 51 -5 458 -5 505 0 19 2 72 7 116 10 45 4 93 9 105 11 13 2 47 6 74
10 67 8 107 14 190 30 39 8 84 16 102 20 18 3 45 10 60 16 15 6 30 10 33 9 21
-4 299 78 450 133 535 196 1034 514 1439 917 549 546 929 1241 1090 1990 19
91 25 122 36 193 3 17 7 43 10 57 5 23 12 78 21 155 25 225 26 661 1 870 -10
77 -19 151 -22 165 -2 14 -6 41 -9 60 -3 19 -10 58 -15 85 -6 28 -13 61 -15
75 -2 14 -19 84 -36 155 -147 599 -469 1214 -875 1670 -15 17 -32 37 -39 45
-6 8 -21 23 -32 33 -21 17 -21 17 -33 -40z"/>
</g>
</svg>
